<?xml version="1.0" standalone="no"?>
<!DOCTYPE svg PUBLIC "-//W3C//DTD SVG 20010904//EN"
 "http://www.w3.org/TR/2001/REC-SVG-20010904/DTD/svg10.dtd">
<svg version="1.0" xmlns="http://www.w3.org/2000/svg"
 width="828.000000pt" height="1104.000000pt" viewBox="0 0 828.000000 1104.000000"
 preserveAspectRatio="xMidYMid meet">

<g transform="translate(0.000000,1104.000000) scale(0.100000,-0.100000)"
fill="#000000" stroke="none">
<path d="M3742 8398 c-19 -19 -14 -37 16 -52 15 -8 36 -24 47 -37 l20 -22 -25
6 c-26 7 -133 -9 -162 -24 -10 -5 -29 -9 -43 -9 -14 0 -25 -5 -25 -11 0 -5 -4
-8 -9 -4 -5 3 -12 1 -16 -5 -3 -5 -21 -10 -39 -10 -19 0 -39 -7 -46 -15 -7 -8
-19 -15 -26 -15 -8 0 -14 -5 -14 -11 0 -5 -8 -9 -17 -7 -10 1 -25 -2 -33 -7
-8 -6 -33 -17 -55 -25 -42 -16 -61 -44 -66 -95 -2 -16 -10 -38 -18 -47 -13
-16 -12 -18 7 -18 12 0 23 8 27 20 4 13 15 20 31 20 13 0 41 9 61 20 21 11 50
20 65 20 15 0 30 5 33 10 3 6 17 10 31 10 14 0 30 4 37 10 61 50 79 60 116 66
22 4 41 10 41 15 0 5 13 6 28 3 19 -4 41 1 65 15 21 12 46 21 57 21 12 0 20 7
21 18 0 14 3 13 16 -5 39 -56 50 6 11 63 -24 36 -76 85 -114 107 -6 3 -16 1
-22 -5z"/>
<path d="M4270 8354 c-34 -5 -177 -34 -220 -44 -32 -8 -31 -9 17 -8 29 1 53
-1 53 -5 0 -4 0 -11 0 -17 0 -5 -22 -10 -49 -10 -28 0 -52 -4 -55 -9 -3 -4
-19 -11 -36 -14 -60 -12 -29 -57 40 -57 25 0 63 -5 85 -10 25 -6 44 -5 49 0
13 13 53 13 61 0 5 -8 11 -8 19 -1 7 6 16 8 19 5 4 -4 14 -7 24 -8 61 -6 123
-21 157 -37 22 -11 48 -19 57 -19 10 0 21 -5 24 -10 4 -6 11 -8 16 -5 5 4 15
3 22 -2 6 -4 18 -8 26 -10 8 -1 17 -7 21 -14 4 -6 25 -13 46 -15 21 -2 53 -6
70 -9 33 -5 173 -56 206 -75 10 -6 24 -10 31 -10 7 0 23 -9 35 -21 12 -11 27
-17 32 -14 6 3 10 1 10 -4 0 -6 9 -11 19 -11 29 0 99 -40 145 -82 22 -21 49
-38 59 -38 20 0 74 -34 93 -59 6 -8 24 -16 40 -18 16 -3 31 -8 32 -14 2 -5 8
-9 13 -9 4 0 25 -17 45 -37 21 -20 46 -38 56 -38 25 -2 67 -42 118 -112 16
-23 35 -40 42 -38 17 6 64 -36 73 -64 3 -11 13 -21 21 -21 8 0 17 -7 20 -15 4
-8 12 -15 19 -15 7 0 16 -14 20 -30 4 -17 18 -38 33 -47 35 -22 63 -50 60 -60
-2 -4 1 -9 6 -10 5 0 13 -8 18 -17 5 -9 15 -16 23 -16 8 0 17 -11 21 -25 3
-14 12 -25 18 -25 20 0 86 -74 86 -96 0 -12 9 -29 20 -39 10 -9 22 -37 26 -61
3 -24 10 -47 15 -49 4 -3 6 -12 3 -20 -3 -8 2 -22 11 -31 10 -11 14 -25 11
-40 -4 -13 -1 -26 7 -31 15 -10 39 -88 38 -125 0 -16 4 -28 9 -28 5 0 9 -8 8
-17 -3 -29 14 -103 23 -103 5 0 6 -6 3 -13 -3 -8 2 -19 10 -26 9 -7 18 -35 22
-61 5 -34 10 -47 20 -43 13 5 14 2 15 -74 0 -24 4 -43 10 -43 19 0 57 -149 65
-250 2 -30 9 -84 16 -120 7 -36 11 -70 10 -77 -2 -6 2 -14 8 -18 5 -3 10 -22
10 -41 0 -51 24 -38 28 14 2 23 8 42 13 42 6 0 9 -6 6 -12 -2 -7 -1 -20 3 -28
14 -26 20 -89 10 -95 -15 -9 -12 -25 4 -25 19 0 25 -21 12 -43 -8 -13 -8 -20
4 -27 22 -14 64 -189 62 -262 0 -32 4 -48 14 -52 17 -7 19 -33 2 -39 -10 -3
-9 -9 4 -23 16 -18 23 -67 33 -212 2 -34 6 -66 10 -71 3 -5 1 -12 -5 -16 -13
-8 -13 -52 1 -60 6 -4 8 -13 5 -21 -3 -8 -1 -25 3 -38 5 -12 12 -65 16 -117 4
-52 11 -99 17 -106 5 -7 8 -35 6 -63 -1 -27 1 -50 5 -50 5 0 6 -8 3 -17 -3
-10 0 -38 8 -63 12 -43 13 -98 2 -167 -3 -18 -1 -33 5 -33 5 0 8 -44 7 -107
-1 -62 4 -127 11 -151 12 -43 8 -82 -10 -82 -5 0 -9 -7 -9 -15 0 -8 4 -15 9
-15 5 0 7 -24 4 -52 -9 -110 -10 -264 -1 -280 5 -10 4 -19 -2 -23 -6 -4 -8
-23 -6 -43 3 -31 -1 -42 -25 -64 -16 -16 -31 -28 -34 -28 -10 0 -155 -147
-155 -158 0 -7 -5 -12 -10 -12 -6 0 -22 -11 -36 -25 -15 -15 -36 -25 -54 -25
-26 0 -59 -22 -118 -77 -7 -7 -24 -13 -36 -13 -14 0 -32 -12 -46 -29 -12 -17
-34 -31 -49 -33 -14 -2 -25 -7 -24 -13 2 -13 -26 -44 -52 -58 -20 -10 -74 -11
-106 -1 -20 6 -40 50 -43 95 -2 21 -10 38 -24 47 -12 8 -22 21 -22 28 0 23
-44 45 -76 38 -30 -6 -64 -50 -64 -83 0 -9 -7 -26 -15 -38 -11 -16 -12 -22 -2
-26 9 -3 5 -17 -13 -51 -24 -45 -51 -71 -63 -60 -2 3 -20 -4 -38 -15 -19 -12
-42 -21 -51 -21 -9 0 -21 -6 -25 -14 -5 -8 -33 -15 -70 -19 -34 -3 -76 -12
-94 -21 -44 -22 -59 -20 -61 7 0 12 -2 27 -3 32 -7 29 -9 47 -13 131 -2 32
-10 48 -44 82 -41 42 -74 52 -96 30 -7 -7 -12 -19 -12 -28 0 -9 -8 -24 -18
-34 -20 -17 -48 -119 -37 -136 3 -5 -1 -21 -10 -34 -9 -14 -14 -30 -10 -35 11
-19 -24 -71 -49 -71 -13 0 -36 -4 -52 -9 -125 -39 -143 -42 -163 -32 -13 7
-20 22 -20 43 0 18 -3 71 -6 118 -3 47 -7 149 -10 228 -4 120 -2 142 10 142 8
0 34 18 56 40 23 22 50 40 61 40 10 0 16 5 13 10 -3 6 1 10 9 10 9 0 16 4 16
10 0 5 15 17 33 26 39 21 74 57 69 72 -2 7 7 16 21 21 14 5 27 21 31 35 3 14
13 26 20 26 8 0 21 11 30 25 10 14 28 30 42 35 13 5 29 21 36 35 6 14 15 25
20 25 4 0 8 7 8 15 0 8 4 15 9 15 9 0 67 87 93 143 10 20 22 37 26 37 10 0 8
-72 -2 -88 -4 -7 -3 -19 4 -27 6 -7 7 -15 3 -18 -4 -3 -6 -48 -3 -101 3 -53 2
-109 -2 -124 -4 -14 -4 -29 0 -32 16 -11 31 -104 20 -124 -8 -15 -7 -22 6 -31
9 -7 16 -26 16 -44 0 -34 56 -161 71 -161 5 0 7 11 3 25 -3 14 -2 31 3 38 6 6
11 50 12 97 0 47 4 97 7 113 4 18 1 27 -7 27 -8 0 -10 13 -6 45 4 25 2 47 -3
50 -7 4 -6 13 0 26 6 10 8 19 4 19 -3 0 -1 6 5 13 6 8 7 17 3 21 -6 7 -9 61
-14 246 -2 49 7 143 14 155 10 17 7 109 -4 123 -7 8 -7 12 1 12 6 0 11 18 11
44 0 30 5 46 15 50 16 6 21 56 6 56 -11 0 -3 39 12 58 5 6 19 12 31 12 30 1
53 22 57 51 4 25 -19 59 -39 59 -17 0 -44 38 -32 45 7 4 9 18 5 32 -4 18 -1
29 12 40 13 10 15 16 5 20 -16 6 -5 75 15 86 9 5 11 13 5 20 -14 19 -12 60 3
84 8 12 15 35 15 50 1 32 32 160 53 218 8 22 12 48 8 60 -9 26 -3 55 12 57 46
6 76 4 99 -4 23 -8 31 -6 52 14 14 12 32 29 41 36 8 7 13 17 10 23 -12 19 -86
49 -109 45 -14 -3 -30 2 -37 10 -6 8 -19 14 -29 14 -22 0 -23 58 -2 80 14 13
14 15 -2 18 -13 3 -15 10 -10 40 11 59 22 64 136 63 20 0 40 4 43 9 3 6 19 10
34 10 36 0 52 19 57 70 3 36 1 42 -22 51 -18 6 -30 6 -39 -1 -6 -5 -52 -11
-101 -12 l-89 -3 -3 38 c-2 21 1 37 7 37 6 0 11 -5 11 -10 0 -26 30 -17 67 20
26 26 50 40 66 40 58 0 61 11 15 51 -23 22 -46 39 -49 39 -12 0 -17 65 -7 78
7 8 7 16 -1 26 -17 20 -9 117 16 186 8 22 9 160 2 160 -4 0 -6 15 -5 33 2 17
-1 37 -5 42 -11 15 -13 48 -4 68 4 10 5 21 1 24 -3 3 0 13 7 21 9 12 9 16 0
19 -7 3 -13 18 -13 34 0 17 -5 40 -11 51 -6 11 -13 51 -15 87 -8 118 -19 196
-34 218 -11 16 -11 27 -3 45 9 20 7 28 -13 47 -17 17 -24 34 -24 62 0 26 -7
47 -22 65 -13 14 -32 42 -44 63 -23 44 -38 60 -79 83 -17 9 -36 28 -43 42 -7
14 -19 26 -27 26 -7 0 -27 11 -43 25 -17 14 -35 25 -42 25 -6 0 -36 22 -66 48
-30 27 -66 54 -79 60 -14 7 -35 17 -47 22 -13 6 -38 24 -56 40 -19 16 -42 32
-53 35 -10 4 -19 10 -19 15 0 4 -7 11 -16 14 -8 3 -12 2 -9 -4 10 -16 -21 -12
-35 4 -6 8 -28 20 -48 27 -20 6 -40 17 -44 24 -4 6 -26 18 -49 25 -22 8 -48
24 -55 36 -10 15 -30 24 -60 29 -25 3 -48 13 -51 21 -3 8 -15 14 -28 14 -12 0
-28 7 -35 15 -7 9 -19 14 -27 11 -8 -3 -16 1 -19 9 -3 8 -22 17 -42 20 -69 11
-81 15 -98 32 -9 9 -31 18 -48 18 -17 1 -53 12 -79 23 -58 26 -67 27 -67 6 0
-8 -4 -12 -10 -9 -12 7 -126 17 -160 14 -30 -3 -101 -3 -157 1 -22 1 -47 -2
-55 -6 -17 -12 -50 -16 -126 -16 -47 0 -62 -3 -58 -13 3 -8 -2 -11 -14 -8 -10
3 -21 0 -24 -6 -4 -6 -17 -11 -29 -11 -13 0 -31 -6 -42 -14 -11 -7 -42 -16
-69 -20 -27 -3 -54 -10 -60 -15 -6 -4 -28 -11 -48 -15 -20 -4 -38 -11 -40 -17
-2 -5 -10 -11 -18 -12 -8 -2 -22 -7 -30 -12 -38 -24 -87 -45 -117 -51 -18 -3
-33 -11 -33 -18 0 -15 -115 -86 -140 -86 -47 0 -305 -350 -405 -548 -63 -127
-126 -315 -131 -397 -7 -108 -15 -186 -27 -245 -13 -66 -11 -99 15 -283 9 -68
15 -87 27 -86 9 1 27 1 41 0 28 -1 26 16 18 -178 -2 -42 1 -73 7 -73 5 0 4 -5
-2 -11 -8 -8 -8 -22 -1 -47 6 -20 8 -58 5 -84 -4 -30 -2 -48 4 -48 6 0 9 -12
7 -27 -2 -17 -8 -27 -17 -25 -7 1 -19 -2 -26 -8 -7 -6 -19 -8 -28 -4 -9 3 -24
-3 -36 -15 -12 -12 -25 -20 -30 -18 -5 1 -23 -8 -40 -21 -32 -23 -44 -72 -18
-72 6 -1 41 -2 77 -4 36 -2 70 0 75 5 6 4 29 12 52 17 40 9 43 8 78 -28 36
-37 39 -60 9 -60 -8 0 -14 -6 -12 -14 2 -8 -13 -31 -32 -52 -19 -22 -34 -43
-32 -47 1 -5 -7 -11 -18 -14 -13 -4 -19 -11 -16 -20 3 -8 1 -11 -4 -8 -6 3
-13 -2 -17 -12 -8 -20 -28 -43 -39 -43 -4 0 -17 -11 -30 -25 -13 -14 -32 -25
-42 -25 -11 0 -22 -7 -26 -15 -3 -8 -17 -20 -31 -25 -18 -7 -25 -17 -25 -35 0
-15 6 -25 14 -25 8 0 16 -5 18 -11 5 -14 118 -3 118 12 0 5 7 9 15 9 9 0 18 7
22 15 3 9 17 22 32 30 14 8 46 33 70 55 28 27 47 38 53 32 6 -6 6 -12 0 -16
-6 -3 -8 -23 -5 -45 3 -23 1 -41 -6 -45 -16 -10 -14 -26 4 -26 11 0 12 -5 5
-26 -6 -14 -11 -60 -11 -102 -1 -43 -5 -100 -10 -129 -4 -28 -4 -64 0 -79 8
-32 -6 -143 -21 -161 -5 -7 -6 -22 -2 -35 9 -24 12 -48 18 -133 2 -27 7 -84
11 -125 4 -41 8 -86 9 -100 1 -14 4 -29 8 -35 3 -5 6 -37 6 -70 0 -33 1 -64 3
-70 6 -25 10 -65 13 -125 2 -36 5 -69 6 -75 1 -5 2 -14 1 -19 -2 -10 9 -42 47
-137 6 -15 14 -47 17 -73 4 -25 11 -46 15 -46 4 0 11 -12 15 -27 10 -42 67
-184 72 -179 2 2 -1 32 -7 67 -14 90 -19 230 -7 253 7 14 5 21 -7 28 -9 5 -15
19 -15 31 1 52 -9 173 -16 190 -6 13 -2 17 17 17 19 0 30 -10 48 -46 12 -26
31 -49 41 -51 11 -3 19 -10 19 -15 0 -6 11 -19 25 -30 14 -11 25 -26 25 -33 0
-8 9 -19 20 -25 11 -6 20 -18 20 -26 0 -8 14 -27 31 -41 16 -14 28 -32 25 -39
-3 -8 4 -18 14 -24 11 -6 20 -17 20 -26 0 -8 11 -19 25 -24 14 -5 24 -15 23
-22 -2 -7 4 -14 12 -14 8 -1 21 -2 28 -3 6 0 12 -6 12 -12 0 -14 42 -59 55
-59 13 0 64 -54 90 -93 12 -19 23 -26 36 -22 13 4 19 1 19 -9 0 -10 9 -16 23
-16 13 0 32 -9 42 -20 10 -11 24 -20 31 -20 29 0 67 -46 70 -86 1 -21 4 -39 5
-39 1 0 3 -31 5 -70 1 -38 3 -70 4 -70 2 0 4 -44 6 -98 1 -54 6 -111 9 -128 4
-17 2 -36 -5 -43 -8 -11 -8 -16 2 -20 10 -5 10 -7 1 -12 -7 -3 -13 -14 -13
-25 0 -10 -7 -19 -15 -19 -8 0 -15 -5 -15 -10 0 -7 -8 -7 -22 1 -16 9 -23 9
-26 0 -5 -14 -98 -15 -107 -1 -4 6 -11 7 -17 4 -6 -4 -27 -8 -46 -10 -32 -3
-41 2 -84 49 -26 29 -47 57 -48 62 0 6 -19 19 -42 30 -24 11 -45 21 -48 22 -9
5 -65 -78 -67 -100 -6 -53 -10 -69 -22 -77 -8 -4 -11 -12 -7 -18 3 -6 -3 -14
-15 -17 -25 -8 -129 3 -129 14 0 4 -30 8 -66 9 -36 0 -71 6 -78 12 -8 5 -33
12 -57 15 -24 3 -60 9 -79 15 -19 5 -48 10 -64 10 -16 0 -38 8 -49 17 -15 13
-21 15 -24 6 -4 -10 -10 -10 -26 -1 -12 6 -25 16 -29 22 -4 6 -41 16 -83 23
-43 6 -85 19 -95 28 -10 9 -24 14 -30 10 -6 -4 -22 -4 -36 -1 -20 5 -23 11
-18 31 4 14 1 32 -6 40 -7 8 -11 34 -8 60 2 25 0 45 -3 45 -8 0 -22 178 -23
273 0 31 -4 57 -9 57 -4 0 -7 17 -7 38 1 76 0 85 -9 96 -6 6 -9 49 -7 94 1 45
0 84 -2 87 -3 3 -6 17 -8 32 -16 159 -22 168 -86 137 -30 -14 -33 -20 -30 -48
2 -21 -2 -39 -12 -49 -9 -9 -12 -18 -7 -21 6 -4 6 -19 -1 -39 -6 -17 -14 -61
-19 -96 -5 -37 -16 -72 -26 -84 -10 -10 -16 -21 -15 -24 2 -3 1 -7 -2 -11 -7
-7 -1 183 7 213 3 11 6 20 7 20 8 0 5 124 -2 139 -6 10 -9 64 -7 120 1 55 3
128 3 161 1 33 5 70 9 82 4 12 4 24 -2 27 -5 4 -5 21 1 46 7 26 7 49 0 67 -7
22 -6 32 5 42 10 9 12 16 4 20 -8 5 -7 13 3 26 9 12 11 26 6 35 -5 8 -6 40 -4
70 3 30 6 105 8 165 2 61 9 123 15 138 6 16 11 56 11 91 0 35 5 67 12 74 7 7
8 12 4 12 -5 0 -3 6 3 14 6 8 12 27 11 42 0 82 1 98 12 117 7 13 7 22 1 24
-15 5 -3 117 13 126 19 11 18 27 -2 27 -13 0 -13 2 -1 21 12 16 13 29 5 56 -6
23 -6 45 1 65 6 17 11 50 11 74 0 25 5 44 13 47 9 3 9 7 -2 20 -11 14 -11 29
-3 79 6 35 11 70 11 78 3 85 12 154 21 165 8 10 9 19 3 28 -14 16 -12 46 3 76
9 17 10 29 4 35 -13 13 -13 53 1 62 6 3 9 18 6 33 -3 14 1 41 8 58 8 18 10 33
5 33 -11 0 -4 125 7 143 6 10 9 45 12 149 1 9 7 23 14 30 7 7 12 39 12 73 1
108 11 174 30 196 16 17 17 23 7 40 -8 12 -8 19 -2 19 6 0 8 11 4 25 -3 14 -1
32 6 40 6 8 9 19 5 25 -3 6 1 25 10 42 10 21 12 34 5 36 -16 6 -12 40 8 51 9
6 14 11 11 11 -6 0 3 44 32 150 7 25 20 55 30 68 13 16 16 33 12 53 -5 25 0
35 35 68 30 29 39 44 35 60 -3 12 1 29 9 39 8 9 18 25 21 35 4 9 14 17 24 17
12 0 14 3 6 11 -8 8 -4 18 13 36 13 14 24 32 24 38 0 7 36 50 80 95 44 45 80
86 80 90 0 4 7 10 15 14 8 3 15 12 15 21 0 9 9 15 22 15 13 0 44 23 80 60 32
33 64 60 72 60 8 0 21 8 28 18 7 9 24 23 38 30 14 7 39 21 55 31 17 11 38 20
47 20 10 1 22 10 28 21 6 11 20 20 31 20 11 0 22 7 26 16 7 19 -27 45 -81 60
-39 10 -43 9 -81 -20 -22 -17 -46 -37 -53 -44 -8 -7 -27 -19 -43 -27 -16 -9
-29 -22 -29 -30 0 -8 -5 -15 -10 -15 -6 0 -27 -11 -48 -24 -21 -13 -52 -27
-70 -31 -18 -3 -31 -12 -30 -19 3 -13 -79 -96 -94 -96 -5 0 -6 -5 -3 -11 4 -6
-2 -13 -13 -16 -11 -2 -26 -17 -33 -31 -20 -39 -35 -52 -58 -52 -14 0 -21 -6
-21 -20 0 -13 -10 -24 -26 -30 -14 -6 -22 -15 -19 -20 4 -6 -4 -25 -18 -43
-13 -18 -27 -42 -31 -53 -3 -12 -15 -29 -26 -39 -11 -10 -20 -25 -20 -33 0 -7
-9 -27 -20 -43 -12 -15 -29 -53 -40 -83 -10 -30 -25 -65 -33 -78 -9 -12 -19
-41 -23 -63 -3 -22 -11 -48 -16 -59 -6 -10 -12 -28 -13 -40 -2 -11 -11 -40
-19 -64 -9 -24 -14 -47 -11 -51 2 -5 -5 -53 -16 -107 -11 -55 -25 -126 -30
-159 -5 -33 -15 -85 -21 -115 -7 -30 -13 -64 -14 -75 -1 -11 -5 -29 -7 -40 -3
-11 -8 -49 -12 -85 -4 -36 -12 -70 -17 -77 -5 -7 -7 -16 -4 -21 3 -6 -1 -52
-9 -103 -16 -105 -23 -148 -30 -199 -2 -19 -9 -55 -14 -80 -6 -25 -10 -66 -11
-92 0 -26 -5 -50 -10 -53 -6 -3 -10 -25 -10 -49 0 -55 -19 -158 -32 -174 -6
-6 -8 -25 -5 -41 3 -15 2 -32 -3 -37 -5 -5 -11 -27 -14 -49 -6 -55 -17 -95
-25 -95 -4 0 -8 -23 -9 -51 -1 -28 -9 -83 -17 -122 -8 -40 -15 -83 -15 -97 0
-15 -5 -31 -11 -37 -7 -7 -13 -42 -15 -79 -2 -38 -10 -77 -19 -90 -8 -13 -15
-43 -15 -66 0 -24 -7 -53 -15 -65 -9 -12 -14 -26 -13 -30 1 -4 -4 -29 -11 -55
-7 -26 -11 -54 -7 -63 3 -9 2 -23 -3 -33 -5 -9 -14 -37 -20 -62 -7 -25 -17
-61 -23 -80 -5 -19 -11 -46 -12 -60 -1 -14 -4 -29 -7 -35 -4 -5 -10 -26 -14
-45 -4 -19 -10 -39 -13 -44 -3 -6 -7 -19 -8 -30 -1 -12 -11 -46 -22 -76 -22
-58 -57 -234 -67 -335 -3 -33 -8 -78 -11 -100 -5 -39 -5 -40 10 -15 8 14 23
48 32 75 17 50 26 71 58 133 10 18 19 45 21 59 1 14 8 29 15 33 7 4 10 12 7
17 -3 4 3 26 13 48 11 22 19 52 20 67 0 15 5 30 10 33 6 4 8 10 5 15 -3 5 10
61 30 125 19 64 35 127 35 141 0 13 4 24 8 24 4 0 8 16 9 36 1 39 21 95 37
106 7 5 7 8 -1 8 -10 0 -10 7 -2 28 6 15 13 45 15 66 2 22 8 42 13 45 4 3 9
22 9 41 2 68 20 158 36 181 16 23 16 23 16 -13 0 -20 -5 -40 -11 -43 -6 -4 -8
-13 -5 -21 3 -8 2 -24 -3 -36 -5 -13 -4 -29 1 -38 6 -10 3 -45 -10 -102 -10
-50 -15 -91 -10 -96 5 -5 4 -20 -1 -35 -7 -17 -7 -28 -1 -32 7 -4 6 -13 0 -26
-6 -11 -9 -23 -7 -27 3 -4 0 -18 -5 -32 -6 -14 -12 -108 -14 -210 -4 -197 -8
-252 -16 -266 -3 -5 -2 -31 2 -57 4 -26 3 -50 -2 -53 -11 -7 -10 -51 1 -59 6
-3 7 -43 4 -93 -3 -48 -6 -168 -7 -267 0 -99 -4 -185 -8 -191 -4 -5 -2 -30 3
-54 7 -31 7 -46 0 -48 -6 -2 -8 -8 -5 -14 4 -6 9 -51 11 -101 2 -50 11 -109
19 -131 7 -23 14 -49 14 -59 0 -24 59 -107 76 -107 7 0 15 8 18 18 14 46 36
175 36 207 0 20 4 44 10 54 5 10 12 55 15 101 4 45 11 93 16 107 5 13 9 36 10
51 0 15 7 -4 15 -43 8 -38 13 -80 10 -93 -2 -13 0 -39 4 -57 4 -19 4 -35 0
-37 -5 -2 -4 -23 1 -48 5 -25 16 -101 24 -170 20 -169 22 -183 29 -200 8 -18
120 -85 145 -86 10 -1 38 -10 62 -21 77 -36 96 -42 118 -36 12 3 42 -6 71 -21
28 -15 54 -25 58 -22 4 2 47 -6 96 -19 49 -13 94 -21 101 -19 6 3 27 -2 47
-10 34 -15 141 -27 253 -30 78 -2 131 38 133 102 1 19 3 37 6 39 8 8 41 -19
76 -63 30 -38 39 -44 60 -38 38 10 323 11 338 0 6 -4 12 -16 12 -26 0 -22 -69
-94 -127 -133 -22 -16 -43 -36 -46 -46 -2 -10 -22 -25 -43 -35 -21 -10 -43
-24 -49 -30 -5 -7 -28 -23 -50 -36 -22 -14 -64 -44 -92 -67 -29 -24 -56 -43
-60 -43 -5 0 -31 -18 -59 -39 -29 -21 -61 -42 -73 -46 -12 -3 -19 -10 -16 -15
6 -9 -35 -21 -85 -25 -56 -3 -158 -54 -165 -82 -3 -13 -10 -23 -16 -23 -12 0
-22 -9 -136 -117 -42 -40 -82 -73 -89 -73 -6 0 -19 -11 -28 -25 -9 -14 -22
-25 -29 -25 -7 0 -24 -10 -37 -23 -38 -33 -115 -84 -139 -92 -11 -3 -21 -11
-21 -17 0 -5 -6 -8 -14 -5 -8 3 -20 0 -26 -8 -6 -8 -30 -23 -53 -33 -92 -42
-115 -52 -126 -52 -6 0 -11 -4 -11 -8 0 -9 -61 -37 -102 -47 -15 -4 -29 -13
-32 -20 -3 -8 -31 -22 -63 -31 -70 -20 -82 -26 -202 -90 -24 -13 -49 -24 -56
-24 -7 0 -29 -13 -50 -30 -21 -16 -48 -30 -60 -30 -30 0 -109 -86 -181 -197
-31 -49 -66 -96 -78 -105 -12 -10 -17 -18 -12 -18 4 0 -3 -15 -18 -34 -14 -19
-26 -39 -26 -45 0 -6 -4 -11 -9 -11 -5 0 -12 -11 -15 -25 -4 -14 -12 -25 -19
-25 -7 0 -21 -14 -31 -30 -9 -17 -27 -39 -38 -50 -11 -10 -17 -23 -13 -30 3
-6 -7 -26 -24 -46 -17 -19 -31 -40 -31 -45 0 -6 -13 -28 -29 -48 -16 -21 -33
-49 -36 -64 -4 -15 -11 -27 -15 -27 -9 0 -40 -73 -40 -95 0 -13 86 -15 680
-15 l680 0 -46 57 c-26 32 -52 62 -58 69 -6 6 -40 44 -76 84 -71 80 -79 88
-140 140 -22 19 -58 51 -78 70 -48 45 -91 80 -97 80 -7 0 -129 130 -134 142
-4 12 31 -5 51 -25 7 -7 20 -18 29 -23 23 -13 99 -76 118 -96 8 -10 21 -18 28
-18 6 0 16 -6 20 -13 4 -6 33 -31 63 -54 78 -59 264 -252 335 -348 17 -22 37
-45 45 -52 12 -10 416 -12 1819 -13 l1804 0 34 37 c240 265 431 463 446 463 4
0 12 11 17 25 5 14 16 25 23 25 24 0 57 45 57 78 0 25 -4 32 -20 32 -17 0 -20
-7 -20 -46 0 -38 -3 -45 -17 -42 -15 3 -18 17 -21 96 -3 87 -2 92 18 92 16 0
20 -6 20 -36 0 -33 2 -36 24 -30 29 7 56 -15 57 -47 0 -12 3 -17 5 -10 3 7 42
43 87 81 118 99 152 106 64 13 -31 -33 -35 -41 -22 -51 23 -19 19 -76 -7 -94
-28 -20 -62 -20 -78 -1 -7 8 -17 15 -22 15 -17 0 -480 -473 -546 -558 l-34
-42 651 0 651 0 -6 47 c-3 27 -10 68 -15 93 -5 25 -11 64 -13 86 -2 23 -9 50
-15 61 -6 11 -15 42 -21 69 -6 27 -13 56 -17 64 -3 8 -7 26 -9 39 -4 34 -41
108 -65 132 -16 16 -20 29 -16 55 7 42 -8 53 -32 22 -19 -23 -19 -24 0 -54 23
-38 24 -44 5 -44 -8 0 -27 16 -42 35 -33 44 -44 44 -44 -1 0 -28 -3 -35 -17
-32 -15 3 -18 17 -21 91 l-3 87 46 0 c26 0 55 -5 66 -11 19 -9 19 -9 7 13 -22
39 -101 142 -120 156 -9 7 -23 18 -30 25 -7 7 -24 18 -38 25 -14 6 -32 16 -40
21 -18 11 -91 44 -137 61 -18 7 -33 16 -33 21 0 5 -7 9 -15 9 -18 0 -115 68
-115 81 0 5 -9 9 -19 9 -11 0 -26 9 -33 19 -7 10 -31 26 -52 35 -21 9 -54 29
-72 46 -19 16 -41 30 -49 30 -7 0 -20 6 -27 12 -7 7 -25 19 -40 27 -16 8 -28
20 -28 27 0 6 -8 15 -17 18 -27 9 -57 29 -77 49 -10 9 -24 17 -32 17 -7 0 -19
9 -26 20 -7 11 -20 20 -29 20 -8 0 -33 15 -55 33 -56 47 -84 63 -124 71 -19 3
-46 12 -60 19 -26 13 -125 16 -137 4 -4 -4 -18 5 -33 21 -14 16 -39 32 -54 36
-15 4 -38 17 -51 30 -13 13 -26 21 -29 18 -3 -3 -6 2 -6 11 0 9 -12 18 -32 22
-38 9 -70 25 -81 42 -4 7 -14 13 -21 13 -7 0 -30 13 -51 29 -22 16 -44 27 -50
25 -5 -2 -26 10 -45 28 -19 18 -38 31 -42 30 -4 -1 -24 14 -45 33 -21 19 -50
37 -64 40 -15 3 -61 29 -104 58 -43 29 -96 63 -120 77 -86 51 -98 66 -92 109
3 22 2 43 -2 46 -3 4 -6 34 -7 68 0 34 -4 81 -9 104 -7 41 -7 43 18 43 14 0
27 5 29 10 2 6 32 15 68 21 36 6 70 15 75 19 6 4 30 11 55 15 74 12 78 18 106
137 15 68 58 57 60 -16 1 -24 8 -58 15 -75 14 -30 16 -31 69 -28 30 1 61 6 68
11 7 4 27 9 45 12 18 2 61 15 96 29 35 13 67 22 71 20 4 -3 21 2 36 10 16 8
41 15 57 15 15 0 27 4 27 10 0 5 11 12 25 16 31 8 92 79 97 113 5 39 25 35 32
-6 4 -23 20 -53 41 -77 l36 -39 52 23 c96 43 142 66 184 93 24 15 49 27 57 27
7 0 19 7 26 15 7 8 19 15 27 15 7 0 16 7 19 15 4 8 12 15 19 15 8 0 26 11 42
24 15 12 46 31 67 41 21 10 41 26 43 36 3 9 25 25 50 35 25 11 49 27 54 36 5
10 16 15 24 12 9 -4 15 0 15 10 0 8 14 25 30 38 17 12 30 26 30 30 0 5 18 28
40 50 22 23 40 46 40 51 0 4 8 6 18 3 12 -4 22 5 35 34 10 22 17 46 14 53 -2
6 0 20 5 30 5 10 11 60 14 110 2 51 7 117 10 147 4 30 5 84 4 120 -2 36 -3 85
-2 110 2 102 1 284 -3 290 -2 4 -7 60 -10 126 -3 65 -11 137 -17 159 -5 22
-12 78 -15 125 -2 47 -9 90 -14 96 -5 7 -9 25 -9 40 0 49 -19 234 -34 339 -9
55 -15 107 -14 115 3 21 -11 104 -28 170 -7 30 -20 102 -29 159 -8 56 -19 109
-25 116 -6 7 -10 17 -9 21 3 12 -12 66 -21 79 -8 10 -18 68 -26 145 -3 25 -12
50 -19 56 -16 12 -45 113 -45 157 0 15 -9 37 -20 49 -11 12 -21 32 -21 45 -2
25 -3 30 -12 53 -3 8 -8 26 -10 40 -3 14 -12 45 -21 70 -22 66 -37 132 -37
157 0 12 -4 25 -9 28 -6 3 -10 16 -10 29 0 12 -3 26 -7 29 -3 4 -8 17 -9 29
-21 171 -99 493 -126 520 -10 10 -18 26 -18 37 0 10 -6 23 -13 29 -16 14 -47
-18 -47 -48 0 -31 -18 -33 -53 -6 -19 15 -37 26 -41 26 -10 0 -45 42 -46 53 0
5 -18 34 -40 64 -22 31 -40 60 -40 65 0 8 -27 46 -93 132 -33 44 -165 176
-175 176 -5 0 -29 19 -54 43 -52 49 -131 107 -169 123 -24 11 -53 32 -83 60
-7 6 -21 14 -33 18 -11 4 -28 15 -38 26 -10 11 -26 20 -36 20 -23 0 -169 67
-194 90 -11 10 -31 21 -45 25 -14 4 -41 18 -60 31 -19 13 -44 24 -55 24 -11 1
-38 9 -60 20 -22 11 -48 19 -58 20 -10 0 -31 7 -47 15 -16 8 -58 22 -93 30
-36 8 -77 22 -93 30 -16 8 -39 15 -51 15 -13 0 -40 6 -60 14 -43 16 -89 28
-118 32 -119 14 -211 26 -214 30 -11 11 16 15 135 18 71 2 131 4 134 5 2 1
-13 10 -35 21 -38 19 -52 21 -105 14z m-50 -995 c36 -5 85 -10 110 -12 25 -2
52 -7 61 -11 9 -4 29 -8 44 -10 15 -2 30 -8 34 -14 4 -7 38 -14 76 -17 53 -4
71 -9 82 -25 7 -10 29 -22 48 -26 19 -3 39 -12 46 -20 6 -8 24 -14 39 -14 16
0 30 -7 34 -15 3 -8 14 -15 25 -15 48 0 135 -35 150 -61 9 -14 31 -38 49 -53
17 -15 32 -34 32 -41 0 -7 14 -26 30 -42 17 -15 30 -35 30 -44 0 -8 14 -28 30
-44 17 -16 30 -39 30 -52 0 -13 5 -23 10 -23 6 0 22 -26 37 -57 14 -32 34 -67
43 -78 19 -21 31 -65 31 -103 -1 -13 3 -21 7 -18 5 3 21 -36 36 -87 15 -51 34
-109 42 -130 8 -20 14 -53 14 -72 0 -18 5 -37 10 -40 6 -4 10 19 11 62 1 62 0
83 -5 163 0 14 -7 31 -13 38 -7 7 -13 30 -13 51 0 20 -4 41 -9 47 -6 5 -12 22
-15 38 -3 15 -13 40 -23 55 -9 14 -16 31 -15 38 1 6 -11 34 -28 63 -16 28 -30
58 -30 66 0 8 -7 17 -15 20 -8 4 -15 15 -15 25 0 10 -3 19 -8 19 -4 0 -16 16
-26 35 -11 19 -22 35 -26 35 -4 0 -15 11 -24 25 -22 33 -6 32 30 -2 16 -15 32
-26 37 -25 11 3 82 -34 96 -52 8 -9 19 -16 25 -16 7 0 30 -19 52 -43 21 -24
47 -46 57 -50 9 -4 22 -18 27 -32 5 -14 16 -25 25 -25 8 0 15 -9 15 -20 0 -12
5 -17 14 -14 14 5 56 -44 56 -65 0 -7 9 -21 20 -33 12 -13 20 -36 20 -56 0
-18 4 -41 9 -50 5 -9 11 -43 15 -75 3 -33 11 -65 17 -73 7 -8 13 -50 14 -94 1
-47 7 -85 15 -95 8 -10 11 -30 7 -60 -4 -29 -3 -45 4 -45 6 0 8 -9 4 -20 -4
-12 -3 -26 2 -33 5 -7 10 -32 11 -56 1 -24 6 -49 11 -54 7 -7 7 -15 -1 -25
-10 -11 -8 -16 5 -23 13 -8 15 -17 10 -37 -4 -15 -6 -35 -5 -44 1 -25 -20 -22
-54 7 -16 14 -33 25 -39 25 -5 1 -28 21 -50 46 -22 25 -57 64 -78 87 -21 23
-45 58 -54 77 -9 19 -28 45 -41 58 -13 12 -25 33 -26 47 -1 13 -7 30 -13 37
-5 7 -13 20 -17 28 -3 8 -15 29 -26 45 -11 17 -23 38 -26 48 -4 12 -17 17 -40
17 -27 0 -37 -5 -46 -26 -10 -22 -10 -28 5 -39 9 -6 14 -15 11 -18 -6 -6 11
-52 35 -97 9 -17 4 -40 -9 -40 -5 0 -12 9 -15 20 -4 13 -15 20 -31 20 -14 0
-24 6 -24 15 0 8 -6 12 -12 10 -7 -3 -22 9 -33 25 -13 21 -26 29 -38 26 -23
-6 -57 27 -57 54 0 12 -7 20 -16 20 -18 0 -44 23 -44 39 0 6 -9 11 -20 11 -11
0 -20 6 -20 13 0 6 -22 36 -48 66 -60 66 -87 68 -86 3 1 -34 -2 -40 -13 -31
-7 6 -13 17 -13 24 0 6 -9 20 -20 30 -11 10 -20 26 -20 35 0 9 -11 27 -25 40
-14 13 -25 29 -25 35 0 6 -6 17 -12 23 -7 7 -13 26 -14 42 -1 17 -13 45 -26
63 -14 17 -27 46 -30 62 -3 17 -16 68 -28 115 -24 95 -29 219 -10 289 14 52 8
62 -16 25 -39 -58 -52 -118 -49 -216 2 -51 6 -109 9 -128 16 -99 30 -157 42
-175 8 -11 14 -27 14 -36 0 -17 29 -80 42 -89 3 -3 10 -18 14 -34 4 -16 16
-40 27 -52 21 -24 40 -55 56 -92 6 -12 26 -36 46 -53 19 -17 35 -37 35 -45 0
-8 3 -14 8 -14 4 0 15 -14 24 -30 23 -41 9 -38 -38 10 -21 21 -49 42 -61 45
-13 3 -23 10 -23 15 0 6 -7 10 -15 10 -8 0 -20 9 -27 20 -7 11 -18 20 -24 20
-6 0 -16 11 -22 25 -6 14 -16 25 -22 25 -5 0 -10 7 -10 15 0 9 -11 20 -25 25
-14 5 -25 16 -25 24 0 9 -9 20 -20 26 -11 6 -23 22 -26 36 -4 14 -24 45 -45
68 -21 22 -42 55 -45 73 -3 18 -12 37 -20 44 -8 6 -14 24 -14 40 0 15 -4 30
-9 33 -5 3 -12 17 -15 30 -3 14 -11 38 -17 53 -7 15 -11 43 -10 61 2 23 -2 32
-13 32 -11 0 -16 9 -16 28 1 75 -26 138 -65 148 -28 7 -24 32 11 69 28 30 29
35 9 35 -8 0 -15 -4 -15 -9 0 -5 -11 -12 -24 -15 -39 -10 -90 -85 -115 -167
-13 -41 -19 -288 -7 -307 4 -6 5 -16 2 -21 -3 -5 1 -28 10 -52 8 -24 13 -59
10 -76 -2 -18 0 -35 5 -39 5 -3 7 -10 3 -15 -3 -5 -1 -15 4 -22 5 -7 17 -41
25 -75 9 -35 21 -70 28 -78 7 -8 9 -17 6 -21 -4 -3 -3 -11 1 -17 5 -6 15 -31
22 -56 8 -25 21 -56 31 -70 27 -40 33 -70 15 -70 -9 0 -16 7 -16 15 0 8 -4 15
-10 15 -5 0 -10 7 -10 15 0 8 -6 15 -14 15 -8 0 -18 10 -21 23 -4 12 -18 36
-31 54 -13 17 -24 39 -24 47 0 9 -4 16 -10 16 -5 0 -10 9 -10 20 0 11 -7 20
-15 20 -9 0 -20 20 -30 52 -8 28 -22 59 -31 69 -17 19 -36 80 -36 117 0 12 -6
22 -14 22 -8 0 -14 9 -14 20 0 12 -7 34 -15 51 -9 16 -13 34 -10 39 3 5 -2 13
-11 18 -14 8 -17 34 -21 167 -2 87 -5 172 -7 187 -2 16 3 52 12 81 11 38 12
52 3 55 -9 3 -9 7 0 18 8 9 10 33 5 69 l-6 55 95 -1 c53 -1 99 2 102 5 4 4 14
4 22 0 9 -4 45 -11 81 -15z m-387 -41 c-10 -18 -22 -36 -27 -39 -5 -4 -6 -14
-3 -23 5 -13 2 -14 -20 -5 -18 7 -30 6 -37 -1 -5 -5 -6 -10 -2 -10 5 0 3 -6
-3 -14 -6 -7 -13 -38 -15 -68 -8 -103 -15 -132 -52 -213 -7 -16 -16 -42 -20
-57 -3 -16 -10 -28 -15 -28 -5 0 -9 -13 -9 -28 0 -21 -7 -32 -26 -40 -14 -7
-22 -17 -18 -23 3 -6 -5 -21 -20 -34 -14 -12 -23 -25 -19 -29 3 -3 1 -6 -5 -6
-7 0 -12 -6 -12 -14 0 -7 -7 -19 -15 -26 -8 -7 -15 -20 -15 -30 0 -10 -6 -23
-14 -29 -12 -10 -13 -5 -9 31 3 24 11 53 19 65 21 33 23 148 3 168 -12 12 -15
28 -12 59 4 31 0 51 -12 70 l-18 27 -23 -22 c-13 -13 -24 -29 -24 -36 0 -18
-28 -109 -45 -148 -8 -16 -20 -45 -27 -62 -7 -18 -16 -33 -19 -33 -4 0 -10
-16 -13 -35 -4 -19 -15 -39 -26 -45 -11 -6 -17 -16 -14 -25 4 -8 -1 -18 -10
-21 -9 -3 -16 -12 -16 -20 0 -7 -6 -17 -13 -21 -7 -4 -21 -28 -32 -53 -21 -51
-62 -100 -83 -100 -9 0 -12 -6 -8 -17 5 -12 -11 -33 -54 -75 -33 -32 -60 -64
-60 -70 0 -16 -76 -84 -110 -98 -16 -7 -30 -18 -30 -24 0 -6 -16 -19 -35 -28
l-34 -17 6 37 c2 20 7 44 11 52 3 8 7 32 8 53 1 21 10 49 19 64 9 14 15 36 12
49 -2 13 0 24 4 24 5 0 8 17 7 38 -1 52 18 159 32 177 5 6 11 37 15 70 4 33
13 70 20 81 8 12 11 30 9 41 -4 14 7 33 35 62 23 24 41 47 41 52 0 5 6 9 14 9
8 0 38 24 68 53 72 72 135 121 183 142 22 10 51 26 65 36 14 9 30 18 35 19 6
1 9 6 7 11 -4 14 60 49 91 49 20 0 27 5 27 19 0 15 10 21 42 26 24 4 49 16 56
26 7 11 24 19 37 19 13 0 27 5 30 10 3 6 19 10 35 10 16 0 32 5 35 10 3 6 22
10 41 10 19 0 34 4 34 9 0 5 10 12 23 14 12 2 23 5 25 6 2 0 -5 -14 -15 -31z
m375 -365 c4 -10 7 -39 6 -65 -1 -37 2 -48 13 -48 9 0 13 -6 10 -14 -3 -8 -2
-27 3 -43 5 -15 14 -47 21 -70 7 -24 20 -50 31 -59 10 -10 18 -28 18 -41 0
-12 5 -23 11 -23 7 0 9 -10 5 -25 -4 -17 -2 -25 6 -25 8 0 29 -25 47 -56 19
-31 40 -64 48 -73 8 -9 41 -50 74 -91 l59 -75 -6 -56 -6 -57 35 -17 c26 -12
53 -16 99 -12 45 3 68 0 79 -10 9 -7 27 -16 39 -18 13 -3 28 -9 34 -15 5 -5
18 -10 28 -10 10 0 18 -4 18 -10 0 -5 9 -10 20 -10 11 0 20 -4 20 -9 0 -5 31
-22 70 -37 50 -19 79 -25 106 -21 44 7 50 12 37 29 -6 7 -13 31 -16 53 -6 39
-5 39 11 20 24 -29 89 -57 136 -60 30 -2 44 3 58 19 l17 21 1 -22 c0 -13 5
-23 10 -23 6 0 10 -6 10 -14 0 -7 11 -21 25 -30 14 -9 25 -23 25 -32 0 -8 6
-17 14 -20 8 -3 18 -19 21 -36 5 -20 12 -28 21 -24 8 3 20 -6 29 -24 8 -16 24
-34 34 -40 11 -5 26 -16 33 -22 18 -17 48 -36 74 -47 16 -7 22 -22 27 -62 4
-29 3 -56 -1 -59 -6 -4 -7 -17 -3 -42 0 -5 1 -11 2 -15 1 -11 -77 -6 -118 8
-19 6 -45 8 -58 5 -13 -3 -27 -1 -30 4 -4 6 -12 9 -20 8 -19 -4 -105 52 -105
69 0 8 -17 21 -37 29 -20 9 -51 26 -67 38 -32 23 -58 36 -111 55 -34 12 -315
13 -315 0 0 -4 -21 -11 -46 -15 -28 -4 -55 -16 -69 -30 -13 -13 -30 -24 -38
-24 -7 0 -23 -13 -35 -30 -13 -16 -29 -30 -37 -30 -8 0 -15 -6 -15 -12 -1 -20
-37 -58 -55 -58 -11 0 -15 -6 -11 -18 7 -22 -16 -71 -45 -98 -31 -28 -42 -53
-31 -67 7 -8 5 -24 -5 -47 -8 -19 -15 -60 -14 -90 0 -30 1 -71 1 -90 0 -19 -2
-60 -5 -90 -3 -30 -2 -50 2 -44 4 6 16 13 25 17 10 3 27 28 39 54 12 26 32 71
45 100 13 28 24 57 24 62 0 6 7 11 15 11 13 0 20 14 13 23 -3 3 20 32 45 55 9
9 17 21 17 26 0 17 167 173 191 178 13 3 32 9 41 13 15 6 16 3 9 -22 -5 -15
-15 -41 -22 -58 -7 -16 -14 -37 -15 -45 -1 -8 -6 -26 -11 -40 -10 -28 -8 -101
9 -240 4 -33 14 -36 127 -39 53 -1 97 -4 99 -6 7 -6 6 -105 -1 -111 -3 -3 -44
-6 -91 -6 -56 1 -86 -3 -86 -10 0 -6 12 -31 26 -55 14 -25 23 -51 20 -59 -3
-8 1 -14 10 -14 8 0 25 -10 37 -23 12 -12 34 -28 50 -35 15 -6 27 -16 27 -22
0 -6 4 -9 8 -6 5 3 33 -2 63 -10 58 -15 121 -11 154 12 11 8 26 14 35 14 8 0
25 10 37 23 60 61 83 92 83 108 0 13 7 19 21 19 16 0 20 5 16 20 -4 17 0 20
24 20 22 0 30 5 33 23 13 61 16 94 9 101 -5 4 -8 26 -9 48 0 32 2 37 11 25 6
-8 22 -17 35 -19 18 -2 28 -12 36 -38 7 -20 8 -42 4 -51 -5 -8 -11 -33 -13
-56 -3 -22 -10 -49 -15 -59 -6 -11 -8 -43 -6 -71 2 -38 -1 -57 -12 -68 -11
-10 -14 -24 -9 -42 3 -15 2 -29 -5 -33 -6 -4 -12 -19 -13 -34 -1 -15 -9 -31
-17 -36 -12 -8 -13 -11 -1 -19 10 -6 10 -10 1 -16 -6 -4 -9 -14 -6 -22 4 -8
-1 -35 -9 -59 -8 -24 -12 -50 -9 -59 9 -22 -28 -19 -77 6 -39 20 -40 21 -25
44 10 15 14 35 10 53 -5 25 -9 28 -35 24 -16 -2 -37 -14 -47 -26 -22 -28 -84
-66 -107 -66 -10 0 -15 -3 -12 -7 10 -9 -64 -42 -80 -36 -7 3 -13 -2 -13 -10
0 -20 -30 -28 -132 -33 -80 -4 -92 -2 -138 22 -28 14 -52 30 -55 34 -2 4 -21
4 -42 1 -33 -5 -38 -10 -41 -36 -2 -17 2 -33 10 -40 8 -5 17 -17 20 -26 4 -10
36 -25 80 -38 40 -12 81 -26 91 -32 11 -6 38 -9 61 -8 23 2 47 -1 54 -5 6 -4
23 1 37 10 24 16 27 16 40 -2 8 -10 15 -29 15 -41 0 -12 3 -23 8 -25 14 -6 42
-66 42 -91 0 -25 16 -37 51 -37 55 0 98 73 65 109 -9 10 -16 27 -16 39 0 13
-6 22 -15 22 -8 0 -15 5 -15 10 0 6 -10 24 -21 39 -25 34 -20 47 21 56 17 4
30 11 30 16 0 5 9 9 20 9 10 0 24 9 30 20 6 11 17 20 25 20 17 0 19 -9 5 -30
-5 -8 -6 -17 -1 -20 4 -3 20 -22 35 -42 16 -21 36 -38 46 -38 10 0 22 -6 27
-12 10 -13 10 -128 0 -144 -3 -5 -8 -41 -11 -79 -8 -93 -12 -113 -31 -141 -8
-13 -15 -28 -15 -35 0 -6 -10 -24 -22 -39 -13 -16 -34 -47 -48 -69 -13 -23
-32 -41 -41 -41 -11 0 -20 -11 -23 -27 -4 -16 -20 -38 -36 -51 -16 -13 -32
-36 -35 -53 -4 -19 -14 -31 -30 -35 -14 -3 -33 -19 -43 -36 -11 -16 -23 -29
-27 -29 -5 1 -9 -10 -11 -24 -1 -14 -20 -41 -41 -61 -45 -43 -160 -134 -169
-134 -3 0 -23 -18 -44 -40 -21 -22 -44 -40 -52 -40 -7 0 -26 -11 -41 -25 -15
-14 -33 -25 -40 -23 -6 1 -25 -10 -41 -25 -16 -15 -35 -27 -42 -27 -7 0 -29
-9 -49 -20 -20 -11 -44 -20 -55 -20 -11 0 -20 -5 -20 -10 0 -6 -6 -10 -12 -9
-17 3 -47 -10 -80 -34 -15 -12 -35 -17 -47 -14 -12 3 -24 1 -27 -4 -3 -5 -10
-7 -15 -4 -5 4 -15 3 -21 -2 -18 -12 -226 -14 -269 -2 -20 5 -46 18 -59 29
-17 15 -26 17 -36 9 -16 -13 -50 -4 -83 23 -29 22 -107 58 -127 58 -8 0 -14 4
-14 10 0 5 -18 19 -40 30 -22 11 -46 29 -52 40 -7 11 -21 20 -30 20 -10 0 -22
9 -28 19 -5 11 -19 23 -30 26 -11 4 -27 20 -35 36 -9 16 -22 29 -30 29 -8 0
-19 9 -24 19 -6 10 -24 24 -41 29 -17 6 -33 19 -37 29 -4 10 -9 20 -12 23 -10
9 -31 44 -37 63 -4 10 -16 17 -30 17 -13 0 -24 6 -24 13 -1 6 -14 28 -30 47
-17 19 -30 39 -30 45 0 6 -9 17 -19 24 -11 8 -17 20 -15 26 3 7 -2 15 -10 18
-9 4 -16 13 -16 22 0 8 -6 15 -12 15 -7 0 -32 32 -56 70 -24 39 -47 70 -53 70
-5 0 -9 6 -9 13 0 7 -9 23 -20 35 -11 12 -20 26 -20 32 0 7 -15 44 -34 83 -29
59 -35 85 -36 142 -3 146 -1 165 18 172 9 3 31 17 49 29 17 13 39 21 47 18 9
-4 32 7 55 25 l39 31 26 -23 c30 -28 33 -62 10 -95 -16 -23 -27 -142 -14 -142
4 0 13 -11 20 -25 13 -25 43 -32 67 -17 22 14 67 126 64 161 -3 38 12 53 47
44 12 -3 28 0 35 6 9 7 24 8 47 1 27 -8 37 -6 58 10 13 11 30 20 37 20 38 0
131 71 136 106 5 25 -37 69 -45 48 -3 -8 -15 -14 -26 -14 -11 0 -20 -4 -20 -9
0 -5 -14 -17 -31 -25 -24 -12 -35 -13 -45 -5 -11 9 -14 8 -14 0 0 -7 -8 -11
-17 -10 -10 2 -28 -2 -39 -9 -12 -6 -24 -9 -26 -6 -3 2 -36 6 -73 8 -37 2 -70
8 -74 13 -3 5 -22 19 -42 31 -35 21 -60 50 -84 97 -6 11 -22 26 -37 34 -22 13
-28 13 -43 1 -13 -11 -15 -23 -11 -52 10 -61 -1 -86 -40 -94 -19 -3 -37 -10
-40 -15 -3 -5 -11 -9 -18 -9 -17 0 -30 88 -15 106 7 8 7 24 1 47 -6 23 -6 39
0 45 6 6 6 22 0 46 -8 28 -7 39 4 51 10 10 12 20 6 32 -11 22 -4 93 9 93 5 0
9 21 8 48 -1 26 3 72 9 102 6 31 6 56 1 58 -5 2 -2 17 6 33 9 16 12 29 9 29
-4 0 0 8 8 18 9 9 24 33 33 52 10 19 26 41 36 48 11 7 19 24 19 36 0 13 7 27
16 30 13 5 14 9 4 21 -9 11 -9 15 -1 15 17 0 47 31 55 57 7 21 75 80 87 76 4
-1 15 7 24 17 10 11 25 20 33 20 9 0 26 10 38 21 13 12 35 23 50 25 15 1 31 9
35 16 10 15 12 6 3 -16 -3 -9 -12 -16 -20 -16 -19 0 -44 -64 -44 -111 0 -20
-6 -44 -13 -51 -18 -18 -30 -68 -17 -68 7 0 7 -6 0 -20 -8 -15 -8 -20 1 -20 8
0 10 -13 5 -39 -4 -25 -2 -42 5 -47 6 -3 9 -15 6 -25 -5 -17 3 -18 119 -15
123 2 124 2 150 -25 22 -23 24 -30 15 -48 -12 -22 -18 -24 -131 -42 -116 -18
-121 -21 -108 -66 5 -21 18 -47 29 -59 10 -11 19 -26 19 -32 0 -7 4 -12 10
-12 5 0 23 -20 40 -45 17 -25 37 -45 45 -45 7 0 22 -11 33 -25 11 -14 27 -25
36 -25 9 0 19 -6 22 -13 7 -19 182 -23 190 -4 3 8 13 13 23 10 13 -3 22 4 30
24 7 15 34 46 61 68 27 22 47 42 44 44 -2 2 5 10 15 17 14 10 21 32 26 86 4
40 11 78 15 83 9 13 -9 217 -21 229 -5 6 -9 31 -9 56 0 25 -7 55 -15 66 -8 10
-15 29 -15 41 0 12 -15 43 -32 68 -18 26 -38 56 -45 67 -17 30 -81 98 -92 98
-6 0 -15 9 -21 21 -7 11 -14 18 -17 15 -3 -3 -23 9 -45 26 -27 21 -53 32 -82
34 -23 2 -64 15 -92 28 -38 18 -67 24 -122 25 -40 0 -72 -3 -72 -8 0 -5 -9 -7
-20 -4 -12 3 -28 -1 -38 -10 -9 -8 -31 -18 -49 -21 -17 -4 -34 -14 -37 -22 -3
-8 -15 -14 -26 -14 -11 0 -20 -4 -20 -10 0 -5 -9 -10 -20 -10 -13 0 -24 -10
-30 -25 -5 -14 -14 -25 -20 -25 -5 0 -10 -7 -10 -15 0 -8 -13 -21 -29 -30 -16
-8 -32 -24 -36 -35 -3 -11 -11 -20 -16 -20 -12 0 -12 57 1 65 6 4 8 11 4 16
-3 5 -7 43 -9 84 -2 41 -6 78 -9 84 -3 5 -7 29 -7 53 -1 23 -8 53 -16 66 -13
21 -12 25 17 52 18 17 36 27 41 24 5 -3 9 0 9 7 0 19 58 69 79 69 11 0 33 11
49 25 17 14 37 25 45 25 8 0 20 7 27 15 7 8 20 15 30 15 9 0 20 3 24 7 14 14
83 34 141 39 102 11 110 10 124 0 10 -8 15 -8 18 1 4 10 9 9 20 -3 10 -9 25
-13 42 -10 26 6 57 -3 144 -42 63 -29 107 -29 107 -2 0 48 -45 206 -62 218
-10 7 -18 20 -18 28 0 8 -7 14 -15 14 -8 0 -15 5 -15 11 0 6 -9 9 -20 6 -13
-3 -25 2 -34 14 -7 11 -19 17 -27 14 -18 -7 -72 8 -76 21 -2 6 16 31 39 55 24
24 50 57 58 72 8 16 22 33 32 38 10 5 18 20 18 32 0 29 72 177 85 173 6 -1 11
-11 12 -22 7 -68 17 -113 30 -142 8 -18 11 -41 8 -52 -4 -11 -2 -20 4 -20 6 0
11 -14 11 -31 0 -17 9 -44 21 -60 13 -19 19 -41 18 -64 -3 -24 3 -41 19 -58
12 -13 22 -29 22 -35 0 -7 4 -12 9 -12 5 0 11 -18 15 -39 3 -21 13 -41 21 -45
8 -3 15 -14 15 -25 0 -10 6 -21 14 -24 7 -3 22 -28 32 -56 10 -28 23 -51 30
-51 6 0 19 -10 27 -22 55 -81 146 -140 202 -131 23 3 36 -1 54 -21 41 -43 55
-26 26 30 -8 16 -15 37 -15 46 0 9 -4 20 -10 23 -5 3 -10 19 -10 36 0 16 -4
29 -10 29 -5 0 -14 19 -20 43 -6 23 -15 50 -20 59 -5 10 -14 34 -19 55 -5 21
-18 69 -29 108 -11 38 -18 73 -15 78 2 4 0 13 -5 20 -11 14 -19 50 -34 157
-11 80 -19 280 -11 293 7 12 22 8 31 -10z m-856 -425 c-7 -7 -12 -8 -12 -2 0
14 12 26 19 19 2 -3 -1 -11 -7 -17z m-22 -42 c0 -3 -4 -8 -10 -11 -5 -3 -10
-1 -10 4 0 6 5 11 10 11 6 0 10 -2 10 -4z m-100 -155 c0 -5 -7 -11 -15 -15
-15 -5 -20 5 -8 17 9 10 23 9 23 -2z m469 -30 c-15 -5 -22 6 -14 19 6 9 10 9
16 -1 5 -8 4 -15 -2 -18z m617 -268 c-7 -7 -26 7 -26 19 0 6 6 6 15 -2 9 -7
13 -15 11 -17z m-1498 -118 c15 -32 15 -100 1 -126 -8 -16 -7 -25 5 -38 9 -10
13 -21 10 -24 -4 -4 -10 -48 -15 -99 -4 -51 -11 -101 -15 -111 -9 -25 -37 -17
-41 13 -8 56 -10 170 -3 213 4 30 3 48 -4 51 -7 3 -6 8 3 14 9 6 12 20 8 38
-3 15 -1 35 3 43 5 9 11 24 14 34 8 24 21 21 34 -8z m2939 -297 c-3 -8 -6 -5
-6 6 -1 11 2 17 5 13 3 -3 4 -12 1 -19z m-116 -220 c7 -13 7 -18 -2 -18 -7 0
-10 -13 -7 -37 3 -20 -2 -49 -9 -65 l-14 -27 -38 20 c-37 19 -91 97 -91 131 0
24 148 19 161 -4z m-2831 -59 c0 -10 -4 -19 -10 -19 -5 0 -10 12 -10 26 0 14
4 23 10 19 6 -3 10 -15 10 -26z m-830 -2310 c0 -11 -4 -17 -10 -14 -5 3 -10
13 -10 21 0 8 5 14 10 14 6 0 10 -9 10 -21z m2730 -121 c0 -16 -3 -19 -11 -11
-6 6 -8 16 -5 22 11 17 16 13 16 -11z m-13 -120 c0 -13 3 -59 6 -103 15 -233
20 -280 28 -283 6 -2 5 -10 -2 -18 -9 -10 -9 -21 -2 -37 6 -12 9 -42 7 -67 -9
-96 -11 -185 -6 -195 4 -5 5 -22 3 -36 -2 -24 3 -29 45 -43 54 -18 68 -20 59
-7 -14 24 16 17 60 -15 27 -18 53 -34 58 -34 6 0 17 -7 26 -15 50 -45 62 -55
83 -66 13 -7 29 -20 36 -31 7 -10 24 -18 36 -18 13 0 29 -7 36 -15 7 -8 23
-15 35 -15 12 0 31 -11 41 -25 10 -14 27 -25 37 -25 11 0 21 -8 24 -18 3 -12
22 -23 54 -32 28 -8 55 -22 60 -32 5 -10 13 -17 17 -16 11 3 89 -36 93 -47 2
-5 7 -9 11 -8 3 1 12 -4 18 -12 7 -8 19 -15 26 -15 8 0 19 -9 26 -20 7 -11 18
-20 25 -20 7 0 13 -4 13 -9 0 -5 12 -11 27 -13 16 -2 32 -12 39 -25 6 -13 14
-20 17 -17 4 4 14 1 23 -7 19 -16 50 -34 82 -48 30 -14 28 -28 -5 -28 -15 0
-29 -6 -31 -12 -2 -6 -10 -11 -18 -11 -8 0 -25 -7 -38 -15 -13 -9 -28 -15 -32
-14 -5 1 -16 0 -24 -3 -56 -19 -89 -28 -107 -28 -11 0 -26 -6 -32 -14 -11 -13
-75 -28 -118 -27 -13 1 -23 -3 -23 -8 0 -11 -78 -34 -90 -26 -5 3 -20 -1 -32
-9 -27 -17 -78 -24 -96 -12 -8 5 -18 4 -25 -3 -6 -6 -21 -11 -32 -11 -12 0
-25 -3 -28 -7 -9 -9 -49 -14 -122 -16 -33 -1 -66 -6 -73 -10 -7 -5 -21 -6 -31
-2 -10 3 -25 0 -32 -7 -9 -8 -39 -13 -84 -12 -38 1 -74 -1 -80 -5 -5 -3 -48
-7 -95 -9 -47 -1 -92 -2 -100 -3 -8 0 -26 0 -40 1 -14 1 -70 -1 -125 -4 -76
-4 -114 -2 -159 11 -43 12 -61 13 -64 5 -2 -7 -11 -8 -25 -3 -12 4 -27 6 -34
4 -6 -2 -14 0 -17 5 -3 5 -26 7 -51 5 -35 -4 -46 -2 -51 11 -3 9 -10 14 -14
11 -5 -3 -21 0 -37 7 -15 6 -38 12 -49 13 -12 0 -28 6 -37 13 -8 7 -21 10 -30
6 -8 -3 -26 0 -39 7 -13 7 -30 12 -38 11 -9 -1 -26 7 -38 18 -12 12 -26 19
-31 16 -5 -3 -11 1 -15 9 -3 8 -13 15 -22 15 -18 0 -77 31 -82 43 -2 4 -18 7
-36 7 -31 0 -146 36 -156 48 -17 23 -105 85 -132 94 -18 6 -51 23 -73 37 -22
14 -49 31 -60 37 -20 12 -22 46 -3 53 5 2 23 16 39 32 16 16 34 29 39 29 6 0
10 5 10 10 0 6 5 10 12 10 6 0 26 11 43 25 18 13 35 22 38 19 3 -3 8 4 12 15
3 12 11 21 16 21 5 0 24 14 41 31 18 17 45 38 60 47 16 9 28 20 28 24 0 4 6 8
13 8 6 0 27 14 46 30 18 17 41 30 50 30 9 0 22 9 29 20 7 11 18 20 25 20 6 0
29 16 50 35 21 19 41 35 44 35 3 0 23 17 44 38 35 36 83 65 151 91 18 7 26 16
22 25 -3 8 0 17 6 21 8 5 6 11 -5 19 -13 10 -14 17 -5 41 8 21 8 31 1 33 -6 2
-11 13 -11 24 0 20 1 21 20 3 11 -10 20 -31 20 -46 0 -26 18 -66 56 -123 8
-13 14 -28 12 -32 -5 -18 34 -75 57 -84 14 -5 25 -16 25 -25 0 -8 7 -15 15
-15 8 0 15 -6 15 -13 0 -23 90 -47 140 -37 25 5 47 9 50 10 3 0 19 11 35 25
17 13 35 28 40 33 6 4 25 17 43 27 17 11 32 22 32 26 0 4 19 31 43 61 46 59
67 92 67 109 0 5 12 26 27 46 15 20 28 41 28 47 1 6 4 18 8 26 3 8 11 34 17
57 6 23 15 45 20 48 6 3 10 26 10 51 0 24 5 44 11 44 5 0 9 8 8 18 -3 20 20
122 31 137 4 6 11 29 15 53 7 45 19 56 22 20z m526 -18 c-3 -11 -7 -20 -8 -20
-1 0 -5 9 -8 20 -3 12 0 20 8 20 8 0 11 -8 8 -20z m631 -1261 c-6 -11 -24 -2
-24 11 0 5 7 7 15 4 8 -4 12 -10 9 -15z m325 -745 c31 -26 41 -68 25 -109 -10
-26 -59 -45 -118 -45 l-55 0 -3 -37 c-3 -33 -6 -38 -28 -38 -24 0 -25 2 -25
65 l0 65 65 3 c91 3 110 9 110 32 0 18 -7 20 -71 20 -78 0 -109 11 -109 40 0
25 12 28 102 29 68 1 80 -2 107 -25z m-889 -24 c0 -5 -4 -10 -10 -10 -5 0 -49
-18 -97 -41 -143 -66 -177 -83 -190 -96 -7 -6 -30 -17 -50 -23 -21 -7 -44 -17
-51 -23 -15 -12 -90 -54 -117 -66 -95 -42 -344 -128 -430 -150 -230 -57 -291
-71 -320 -71 -14 0 -25 -4 -25 -8 0 -5 -10 -8 -22 -7 -12 1 -40 -2 -63 -6 -22
-4 -74 -10 -115 -14 -41 -4 -88 -9 -105 -11 -46 -6 -305 -7 -311 -2 -2 3 46
11 108 17 62 7 133 16 158 21 25 5 110 17 190 26 160 17 489 92 552 125 10 5
31 9 48 9 17 0 53 11 80 25 27 14 58 25 69 25 11 0 23 5 26 10 3 6 13 10 20
10 13 0 45 13 160 66 17 7 46 20 65 28 19 8 46 22 60 30 43 26 202 98 270 122
71 26 100 30 100 14z m1178 -6 c28 -20 30 -69 3 -84 -11 -5 -31 -10 -45 -10
-21 0 -25 -5 -28 -32 -2 -22 -9 -34 -20 -36 -16 -3 -18 6 -18 87 l0 91 43 0
c23 0 53 -7 65 -16z m382 -24 c0 -13 7 -20 20 -20 11 0 20 -5 20 -11 0 -6 -9
-13 -20 -16 -13 -4 -20 -14 -20 -30 0 -16 7 -27 20 -30 11 -3 20 -9 20 -14 0
-14 -20 -21 -44 -15 -45 11 -56 156 -11 156 8 0 15 -9 15 -20z m154 -31 c67
-53 -11 -143 -82 -93 -22 15 -30 57 -14 80 9 13 43 33 58 34 6 0 23 -9 38 -21z
m-801 -101 c14 -21 2 -48 -22 -48 -11 0 -29 13 -41 29 l-20 30 27 4 c38 5 45
3 56 -15z"/>
<path d="M3850 6403 c-4 -77 -1 -265 5 -285 13 -48 75 -32 75 18 0 13 -4 25
-9 28 -5 3 -9 27 -10 53 -1 77 -10 153 -21 174 -10 18 -40 27 -40 12z"/>
<path d="M4182 4958 c-5 -7 -13 -24 -17 -37 -4 -14 -16 -39 -26 -55 -30 -51
-59 -117 -59 -136 0 -31 28 -31 50 -1 20 29 60 114 67 141 19 83 13 121 -15
88z"/>
<path d="M4296 4917 c-4 -19 -15 -42 -26 -52 -11 -10 -20 -27 -20 -37 0 -10
-9 -36 -20 -58 -24 -47 -24 -45 -4 -65 15 -15 18 -15 35 4 11 11 19 25 19 32
0 6 6 25 13 42 45 106 53 159 26 165 -12 2 -18 -7 -23 -31z"/>
<path d="M4042 4887 c-6 -6 -17 -32 -25 -55 -13 -37 -13 -44 -1 -49 16 -6 44
19 44 41 0 9 5 16 10 16 6 0 10 14 10 30 0 32 -19 40 -38 17z"/>
<path d="M4423 4838 c-15 -20 -33 -79 -27 -89 10 -16 30 -9 42 14 26 52 14
112 -15 75z"/>
<path d="M3868 4548 c-65 -68 -82 -95 -84 -132 -2 -29 30 -103 50 -118 6 -4 4
-13 -4 -22 -21 -26 -6 -106 30 -159 36 -53 106 -115 170 -148 84 -44 281 -25
288 28 9 68 10 68 -38 74 -25 3 -38 7 -29 7 9 1 37 11 63 23 49 21 92 18 82
-7 -3 -8 -1 -14 5 -14 7 0 10 16 7 40 -3 39 5 53 15 26 8 -20 -3 -59 -21 -73
-9 -7 -13 -16 -9 -19 17 -18 82 87 79 129 0 9 3 15 9 12 5 -4 9 13 9 38 0 39
4 47 35 68 72 50 71 152 -2 171 -31 8 -46 -13 -38 -56 6 -31 4 -37 -17 -45
-13 -5 -30 -16 -37 -25 -7 -9 -22 -16 -33 -16 -10 0 -30 -7 -43 -16 -14 -9
-25 -13 -25 -10 0 4 -10 0 -23 -9 -13 -8 -27 -12 -30 -9 -4 4 -13 2 -21 -5 -9
-8 -42 -10 -96 -7 -73 4 -89 9 -140 40 -32 20 -65 36 -74 36 -9 0 -19 7 -22
15 -4 8 -12 15 -19 15 -27 0 -33 24 -14 55 10 17 23 41 29 55 6 14 16 36 23
50 16 30 11 60 -9 60 -8 0 -38 -24 -66 -52z m-16 -306 c-7 -2 -12 -8 -12 -14
0 -6 6 -6 15 2 12 10 22 9 50 -4 19 -9 35 -24 35 -33 0 -8 11 -24 25 -35 23
-18 38 -77 16 -63 -5 3 -13 0 -16 -6 -12 -18 -38 30 -39 71 -1 41 -12 50 -68
50 -19 0 -28 5 -28 15 0 21 24 47 29 32 2 -6 -1 -13 -7 -15z m623 -22 c-3 -5
-11 -10 -16 -10 -6 0 -7 5 -4 10 3 6 11 10 16 10 6 0 7 -4 4 -10z m-595 -40
c-8 -5 -22 -10 -30 -10 -13 0 -13 1 0 10 8 5 22 10 30 10 13 0 13 -1 0 -10z
m570 -20 c0 -5 -4 -10 -10 -10 -5 0 -10 5 -10 10 0 6 5 10 10 10 6 0 10 -4 10
-10z m-574 -15 c8 -8 22 -27 30 -42 l15 -28 -5 35 c-5 31 -5 32 4 11 6 -14 8
-31 6 -38 -8 -20 -34 -4 -45 28 -5 16 -15 29 -20 29 -6 0 -11 5 -11 10 0 14 9
12 26 -5z m524 -15 c0 -5 -5 -10 -11 -10 -5 0 -7 5 -4 10 3 6 8 10 11 10 2 0
4 -4 4 -10z m-380 -19 c0 -5 8 -11 18 -13 14 -3 13 -5 -5 -10 -15 -4 -23 -1
-26 13 -3 11 -1 19 4 19 5 0 9 -4 9 -9z m-20 -56 c0 -15 -6 -25 -14 -25 -21 0
-28 17 -10 24 8 3 12 10 9 16 -3 5 -1 10 4 10 6 0 11 -11 11 -25z m160 10 c85
-4 82 -3 75 -15 -4 -6 -15 -8 -26 -5 -10 4 -28 3 -40 0 -19 -6 -19 -8 -3 -19
15 -12 16 -13 0 -19 -9 -4 -30 -4 -46 0 -24 4 -28 8 -19 19 9 11 6 16 -14 23
-34 13 -49 37 -16 26 13 -4 53 -9 89 -10z m-95 -75 c-3 -6 5 -10 19 -10 14 0
28 -4 31 -10 11 -17 -29 -11 -60 10 -28 19 -29 20 -7 20 13 0 20 -4 17 -10z
m155 0 c-14 -4 -38 -8 -55 -8 -29 1 -29 1 5 8 50 11 83 11 50 0z m60 2 c0 -11
-45 -32 -66 -32 -8 0 -12 5 -9 10 3 6 17 10 31 10 14 0 22 4 19 10 -3 6 1 10
9 10 9 0 16 -4 16 -8z m-95 -32 c-3 -5 -18 -9 -33 -9 l-27 1 30 8 c17 4 31 8
33 9 2 0 0 -3 -3 -9z"/>
<path d="M3947 4139 c8 -16 19 -29 24 -29 12 0 -11 48 -26 54 -9 3 -9 -3 2
-25z"/>
<path d="M4311 4091 c-11 -7 -9 -10 8 -16 11 -3 21 -11 21 -16 0 -5 7 -9 15
-9 18 0 20 16 3 26 -8 5 -6 10 8 15 15 6 13 8 -11 8 -16 0 -36 -3 -44 -8z"/>
<path d="M4340 4015 c-30 -32 -10 -33 27 0 20 17 23 24 12 25 -8 0 -26 -11
-39 -25z"/>
<path d="M4715 3947 c-11 -6 -31 -12 -45 -13 -14 -2 -26 -8 -28 -14 -2 -5 -10
-10 -17 -10 -8 0 -35 -11 -61 -25 -26 -14 -52 -25 -58 -25 -6 0 -17 -9 -24
-20 -7 -11 -19 -20 -28 -20 -8 0 -32 -11 -52 -25 -20 -14 -42 -25 -49 -25 -7
0 -21 -9 -30 -20 -10 -11 -24 -20 -31 -20 -8 0 -41 -14 -73 -31 -32 -17 -65
-29 -73 -26 -9 4 -18 2 -21 -3 -7 -11 -115 -2 -131 12 -7 5 -25 10 -41 12 -46
6 -113 28 -113 38 0 4 -9 8 -20 8 -11 0 -20 5 -20 10 0 6 -11 10 -25 10 -16 0
-25 6 -25 15 0 10 -10 15 -28 15 -16 0 -37 8 -48 18 -23 22 -87 35 -102 20
-21 -21 7 -66 54 -89 25 -12 50 -29 56 -39 7 -10 17 -16 24 -13 7 3 28 -7 47
-21 19 -14 40 -26 48 -26 8 0 40 -13 71 -28 36 -18 59 -24 63 -18 3 7 7 7 11
-1 3 -7 21 -13 39 -13 19 0 46 -5 62 -11 50 -20 223 -8 223 15 0 12 55 46 75
46 8 0 21 7 29 16 9 9 28 17 43 19 15 1 29 8 31 14 2 6 11 11 19 11 9 0 29 16
46 35 16 19 37 35 47 35 9 0 25 9 34 19 10 11 28 21 40 23 11 2 21 9 21 15 0
7 10 20 23 28 20 15 23 15 28 1 3 -9 10 -14 14 -11 5 3 11 1 15 -5 9 -15 51
-12 65 5 8 9 9 25 4 47 -5 18 -9 40 -9 48 -1 8 -7 14 -13 12 -7 -1 -21 2 -30
7 -11 6 -25 5 -37 -2z"/>
<path d="M4348 3519 c-8 -13 -27 -23 -48 -26 -18 -2 -38 -7 -44 -12 -19 -15
-78 -22 -92 -11 -7 7 -15 7 -18 2 -3 -6 -31 -4 -68 4 -80 17 -128 17 -167 1
l-31 -13 27 -26 c25 -23 143 -58 157 -47 3 2 12 -5 20 -16 8 -11 17 -17 21
-13 4 4 18 3 31 -2 13 -5 26 -5 28 -1 3 5 41 11 85 15 68 6 82 11 95 31 9 13
24 26 34 29 29 10 55 62 42 86 -14 26 -54 26 -72 -1z"/>
<path d="M6400 690 c0 -15 7 -20 25 -20 18 0 25 5 25 20 0 15 -7 20 -25 20
-18 0 -25 -5 -25 -20z"/>
<path d="M6940 637 c0 -27 19 -40 39 -27 20 12 8 45 -17 48 -18 3 -22 -1 -22
-21z"/>
<path d="M2970 7420 c0 -13 5 -20 13 -17 6 2 12 10 12 17 0 7 -6 15 -12 18 -8
2 -13 -5 -13 -18z"/>
<path d="M6445 3080 c3 -5 8 -10 11 -10 2 0 4 5 4 10 0 6 -5 10 -11 10 -5 0
-7 -4 -4 -10z"/>
<path d="M7180 710 c0 -5 5 -10 10 -10 6 0 10 5 10 10 0 6 -4 10 -10 10 -5 0
-10 -4 -10 -10z"/>
<path d="M7090 689 c0 -15 5 -20 22 -17 34 5 37 38 4 38 -20 0 -26 -5 -26 -21z"/>
<path d="M6701 641 c-15 -27 11 -48 33 -26 17 17 11 45 -10 45 -7 0 -18 -9
-23 -19z"/>
</g>
</svg>
